<svg width="291" height="100" viewBox="0 0 434 143" fill="none" xmlns="http://www.w3.org/2000/svg">
<path d="M171.636 40.8182L182.261 59.1989H182.716L193.455 40.8182H209.193L191.636 69.9091L209.761 99H193.625L182.716 80.4205H182.261L171.352 99H155.33L173.369 69.9091L155.784 40.8182H171.636ZM238.659 99.7955C233.47 99.7955 228.981 98.7064 225.193 96.5284C221.424 94.3314 218.517 91.2159 216.472 87.1818C214.445 83.1288 213.422 78.3182 213.403 72.75V65.5909H254.568V76.8977H227.21V78.0625C227.21 79.9564 227.646 81.6231 228.517 83.0625C229.407 84.483 230.695 85.5909 232.381 86.3864C234.085 87.1818 236.159 87.5795 238.602 87.5795C241.576 87.5795 243.991 86.9924 245.847 85.8182C247.703 84.625 249.057 83.0246 249.909 81.017C250.761 79.0095 251.188 76.7367 251.188 74.1989V65.8466C251.188 63.9148 250.941 62.1345 250.449 60.5057C249.975 58.8769 249.133 57.4564 247.92 56.2443C246.727 55.0133 245.07 54.0568 242.949 53.375C240.828 52.6932 238.119 52.3523 234.824 52.3523C232.987 52.3523 231.093 52.4564 229.142 52.6648C227.21 52.8542 225.392 53.1098 223.688 53.4318C221.983 53.7348 220.534 54.0568 219.341 54.3977L217.324 42.7784C217.835 42.5322 218.744 42.2576 220.051 41.9545C221.358 41.6326 222.911 41.3295 224.71 41.0455C226.509 40.7424 228.422 40.4962 230.449 40.3068C232.475 40.1174 234.483 40.0227 236.472 40.0227C242.665 40.0227 247.873 41.1212 252.097 43.3182C256.339 45.4962 259.549 48.5265 261.727 52.4091C263.924 56.2917 265.023 60.7708 265.023 65.8466V74.1989C265.023 79.1989 263.924 83.6212 261.727 87.4659C259.53 91.3106 256.453 94.3314 252.494 96.5284C248.555 98.7064 243.943 99.7955 238.659 99.7955ZM270.533 99V90.9886L298.8 52.2386H270.561V40.8182H316.584V48.8295L288.317 87.5795H316.555V99H270.533ZM333.77 99H318.656L338.287 40.8182H357.009L376.639 99H361.526L347.861 55.4773H347.406L333.77 99ZM331.753 76.1023H363.344V86.7841H331.753V76.1023ZM428.42 40.8182V99H416.489L393.335 65.4205H392.966V99H378.903V40.8182H391.006L413.903 74.3409H414.386V40.8182H428.42Z" fill="white"/>
<g filter="url(#filter0_d_4_20)">
<path d="M132 67.5C132 100.913 104.913 128 71.5 128C38.0868 128 11 100.913 11 67.5C11 34.0868 38.0868 7 71.5 7C104.913 7 132 34.0868 132 67.5Z" fill="url(#paint0_linear_4_20)"/>
<path d="M128.118 88.8688C130.627 82.2244 132 75.0226 132 67.5C132 34.0868 104.913 7 71.5 7C38.0868 7 11 34.0868 11 67.5C11 76.3244 12.8893 84.7076 16.2854 92.2671C24.5541 77.5486 50.9984 55.1466 92.9271 80.1042C105.225 87.4242 117.111 89.7491 128.118 88.8688Z" fill="white"/>
</g>
<defs>
<filter id="filter0_d_4_20" x="0" y="0" width="143" height="143" filterUnits="userSpaceOnUse" color-interpolation-filters="sRGB">
<feFlood flood-opacity="0" result="BackgroundImageFix"/>
<feColorMatrix in="SourceAlpha" type="matrix" values="0 0 0 0 0 0 0 0 0 0 0 0 0 0 0 0 0 0 127 0" result="hardAlpha"/>
<feOffset dy="4"/>
<feGaussianBlur stdDeviation="5.5"/>
<feComposite in2="hardAlpha" operator="out"/>
<feColorMatrix type="matrix" values="0 0 0 0 0 0 0 0 0 0 0 0 0 0 0 0 0 0 0.5 0"/>
<feBlend mode="normal" in2="BackgroundImageFix" result="effect1_dropShadow_4_20"/>
<feBlend mode="normal" in="SourceGraphic" in2="effect1_dropShadow_4_20" result="shape"/>
</filter>
<linearGradient id="paint0_linear_4_20" x1="71.5" y1="7" x2="71.5" y2="128" gradientUnits="userSpaceOnUse">
<stop offset="0.526042" stop-color="#482171"/>
<stop offset="0.9999" stop-color="#6A34A4" stop-opacity="0.4"/>
<stop offset="1" stop-color="#3D1C60" stop-opacity="0.58"/>
</linearGradient>
</defs>
</svg>
